<svg aria-hidden="true" style="position: absolute; width: 0; height: 0; overflow: hidden;" version="1.1" xmlns="http://www.w3.org/2000/svg" xmlns:xlink="http://www.w3.org/1999/xlink">
<defs>
<symbol id="icon-antenna" viewBox="0 0 32 32">
<path fill="#212121" style="fill: var(--color1, #212121)" d="M30.773 22.098l-8.443-8.505 0.937-4.616c0.225 0.090 0.485 0.144 0.758 0.146h0.007c0.008 0 0.017 0 0.026 0 1.192 0 2.159-0.967 2.159-2.159s-0.967-2.159-2.159-2.159c-1.192 0-2.159 0.967-2.159 2.159 0 0.259 0.046 0.508 0.13 0.739l-0.005-0.015-4.96 0.606-8.091-8.133c-0.096-0.098-0.229-0.159-0.376-0.16h-0c-0.14 0.001-0.274 0.057-0.373 0.155l-1.512 1.504c-0.096 0.097-0.156 0.23-0.156 0.377s0.060 0.281 0.156 0.377v0l0.814 0.825c-1.143 2.062-1.816 4.522-1.816 7.139 0 4.106 1.656 7.824 4.336 10.525l-0.001-0.001c0.043 0.041 0.092 0.074 0.146 0.097-0.032 0.164-0.051 0.353-0.052 0.546v6.188h-6.4c-1.472 0.001-2.666 1.194-2.667 2.666v1.067c0 0.295 0.239 0.534 0.534 0.534h24.534c0.294 0 0.533-0.239 0.533-0.534v-1.067c-0.002-1.472-1.195-2.665-2.666-2.666h-6.4v-2.742c1.003 0.21 2.024 0.317 3.049 0.32 2.58-0.003 5.005-0.663 7.117-1.822l-0.077 0.039 0.818 0.823c0.099 0.101 0.235 0.159 0.376 0.16 0.14-0.001 0.274-0.057 0.373-0.155l1.512-1.504c0.096-0.097 0.156-0.23 0.156-0.377s-0.060-0.281-0.156-0.377v0zM23.28 6.233c0.193-0.192 0.459-0.31 0.752-0.31 0.589 0 1.067 0.478 1.067 1.066s-0.477 1.066-1.067 1.066c-0 0-0 0-0 0h-0.004c-0.587-0.003-1.061-0.479-1.061-1.066 0-0.295 0.12-0.563 0.314-0.756l0-0h-0.002zM22.024 9.737l-0.598 2.946-1.175-1.183 1.774-1.763zM21.419 8.835l-1.92 1.909-1.486-1.493 3.406-0.416zM24.004 28.8c0.884 0 1.6 0.716 1.6 1.6v0 0.534h-23.466v-0.534c0-0.884 0.716-1.6 1.6-1.6v0h20.267zM16.538 26.666v1.067h-5.334v-1.067h5.334zM11.204 25.6v-4.053c0-1.294 1.196-2.346 2.667-2.346s2.667 1.053 2.667 2.346v4.053h-5.334zM17.604 23.904v-2.357c0-1.882-1.675-3.413-3.733-3.413-0.017-0-0.038-0-0.058-0-1.353 0-2.54 0.707-3.213 1.771l-0.009 0.016c-2.36-2.482-3.812-5.846-3.812-9.55 0-2.314 0.567-4.496 1.569-6.414l-0.036 0.077 18.602 18.709c-1.823 0.947-3.979 1.502-6.266 1.502-1.079 0-2.128-0.124-3.136-0.357l0.093 0.018zM28.893 23.22l-21.057-21.181 0.754-0.752 7.935 7.98c0.004 0 0.006 0.007 0.010 0.010l13.114 13.191-0.757 0.752z"></path>
<path fill="#2196f3" style="fill: var(--color2, #2196f3)" d="M13.876 20.267h-0.005c-0.001 0-0.002 0-0.002 0-0.884 0-1.6 0.716-1.6 1.6s0.715 1.599 1.597 1.6h0.005c0.001 0 0.001 0 0.002 0 0.884 0 1.6-0.716 1.6-1.6s-0.715-1.599-1.598-1.6h-0zM14.249 22.245c-0.096 0.096-0.229 0.155-0.376 0.155-0.295 0-0.534-0.239-0.534-0.534s0.238-0.533 0.532-0.533h0c0.293 0.001 0.531 0.239 0.531 0.533 0 0.148-0.060 0.282-0.157 0.378l-0 0h0.005z"></path>
</symbol>
<symbol id="icon-astronaut" viewBox="0 0 32 32">
<path fill="#2196f3" style="fill: var(--color2, #2196f3)" d="M31.974 4.524c-0.064-0.191-0.227-0.332-0.427-0.362l-0.003-0-1.911-0.278-0.855-1.731c-0.179-0.365-0.777-0.365-0.956 0l-0.855 1.731-1.911 0.278c-0.26 0.039-0.457 0.26-0.457 0.528 0 0.15 0.062 0.285 0.161 0.382l1.383 1.348-0.326 1.903c-0.034 0.2 0.048 0.402 0.212 0.522 0.166 0.12 0.383 0.135 0.562 0.040l1.709-0.899 1.709 0.899c0.072 0.038 0.157 0.061 0.247 0.061 0.295 0 0.534-0.239 0.534-0.534 0-0.031-0.003-0.062-0.008-0.092l0 0.003-0.326-1.903 1.383-1.348c0.099-0.097 0.161-0.233 0.161-0.382 0-0.059-0.009-0.115-0.027-0.168l0.001 0.004zM29.511 5.851c-0.126 0.122-0.183 0.299-0.153 0.472l0.191 1.114-1-0.526c-0.072-0.039-0.158-0.062-0.249-0.062s-0.177 0.023-0.252 0.063l0.003-0.001-1 0.526 0.191-1.114c0.005-0.027 0.008-0.059 0.008-0.091 0-0.149-0.061-0.285-0.16-0.381l-0-0-0.811-0.79 1.119-0.162c0.174-0.025 0.324-0.134 0.402-0.292l0.5-1.013 0.5 1.013c0.078 0.158 0.228 0.267 0.402 0.292l1.119 0.162-0.809 0.79zM26.134 20.522h-1.067v1.067h1.067v-1.067zM26.134 22.656h-1.067v1.066h1.067v-1.066zM27.2 21.589h-1.067v1.067h1.067v-1.067zM25.067 21.589h-1.067v1.067h1.067v-1.067zM22.4 26.389h-1.067v1.067h1.067v-1.067zM22.4 28.523h-1.067v1.067h1.067v-1.067zM23.467 27.456h-1.067v1.067h1.067v-1.067zM21.334 27.456h-1.067v1.067h1.067v-1.067zM16 24.256h-1.066v1.067h1.066v-1.067zM16 26.389h-1.066v1.067h1.066v-1.067zM17.067 25.322h-1.067v1.067h1.067v-1.067zM14.934 25.322h-1.067v1.067h1.067v-1.067zM5.867 6.122h-1.066v1.066h1.066v-1.066zM5.867 8.256h-1.066v1.066h1.066v-1.066zM6.933 7.189h-1.067v1.067h1.066v-1.067zM4.8 7.189h-1.067v1.067h1.067v-1.067z"></path>
<path fill="#212121" style="fill: var(--color1, #212121)" d="M24.715 14.16c-0.28-0.376-0.698-0.636-1.179-0.703l-0.009-0.001c-0.076-0.012-0.164-0.018-0.254-0.018-0.411 0-0.789 0.139-1.090 0.373l0.004-0.003-1.253 0.96-1.898 1.417-1.358-0.541c2.421-1.086 4.113-3.508 4.113-6.32 0-3.823-3.122-6.934-6.961-6.934s-6.961 3.11-6.961 6.934c0 1.386 0.415 2.674 1.12 3.759l-2.768-0.024c-0.009 0-0.016 0.005-0.023 0.005-0.057 0.003-0.11 0.014-0.159 0.033l0.004-0.001c-0.013 0.005-0.026 0.007-0.038 0.013-0.006 0.003-0.013 0.003-0.019 0.006l-3.233 1.596c-0 0-0.001 0-0.001 0.001l-1.893 0.91c-0.024 0.011-0.045 0.023-0.065 0.036l0.001-0.001c-0.482 0.324-0.795 0.867-0.795 1.483 0 0.297 0.073 0.577 0.201 0.823l-0.005-0.010c0.22 0.424 0.592 0.742 1.043 0.885l0.013 0.003c0.161 0.053 0.345 0.083 0.537 0.083 0.308 0 0.598-0.078 0.851-0.216l-0.009 0.005 1.388-0.738 2.264-1.169 1.357-0.008-5.442 5.415c0 0.001-0.001 0.001-0.001 0.001l-1.339 1.333c-0.303 0.299-0.491 0.714-0.491 1.173 0 0.002 0 0.003 0 0.005v-0c0.002 0.919 0.748 1.664 1.667 1.664 0.001 0 0.002 0 0.002 0h-0c0.428 0 0.854-0.162 1.18-0.485l1.314-1.309 1.741-1.3 0.901 0.897-3.102 3.088c-0.303 0.299-0.491 0.714-0.491 1.173 0 0.001 0 0.003 0 0.004v-0c0 0.445 0.174 0.864 0.49 1.179 0.302 0.3 0.717 0.485 1.176 0.485 0.001 0 0.002 0 0.003 0h-0c0.427 0 0.855-0.162 1.18-0.485l4.488-4.472c0.007-0.006 0.016-0.009 0.022-0.016l5.166-5.658 3.471 0.494c0.025 0.004 0.050 0.006 0.075 0.006 0.064 0 0.127-0.016 0.187-0.038 0.017-0.006 0.032-0.015 0.049-0.023 0.019-0.010 0.039-0.015 0.058-0.027l3.213-2.133c0.012-0.008 0.018-0.021 0.029-0.030 0.013-0.010 0.029-0.014 0.041-0.026l1.271-1.191c0.348-0.326 0.564-0.787 0.564-1.3 0-0.4-0.132-0.769-0.355-1.066l0.003 0.005zM2.13 17.77c-0.098 0.054-0.215 0.086-0.34 0.086-0.078 0-0.153-0.013-0.224-0.036l0.005 0.001c-0.294-0.093-0.504-0.364-0.504-0.683 0-0.235 0.114-0.444 0.289-0.575l0.002-0.001 1.314-0.632 0.316 0.924 0.133 0.389-0.992 0.527zM5.627 15.942l-1.548 0.8-0.255-0.746-0.184-0.537 2.027-1.001-0.040 1.484zM20.727 9.322c0 0.918-0.219 1.785-0.599 2.56l-4.181-1.899c-0.044-0.575-0.342-1.072-0.782-1.384l-0.006-0.004 1.464-4.861c2.377 0.757 4.104 2.975 4.104 5.588zM8.938 9.322c0-3.235 2.644-5.867 5.894-5.867 0.253 0 0.5 0.022 0.745 0.053l-1.432 4.753c-0.019 0-0.037-0.006-0.057-0.006-0 0-0.001 0-0.001 0-1.032 0-1.869 0.835-1.872 1.867v0c0.003 1.031 0.84 1.867 1.872 1.867 0 0 0 0 0.001 0h-0c0.695 0 1.295-0.383 1.618-0.944l3.863 1.755c-1.075 1.447-2.795 2.39-4.737 2.39-3.25 0-5.894-2.632-5.894-5.867zM14.895 10.122c0 0.441-0.362 0.8-0.806 0.8-0 0-0.001 0-0.001 0-0.443 0-0.802-0.358-0.804-0.8v-0c0-0.441 0.361-0.8 0.806-0.8s0.806 0.359 0.806 0.8zM2.464 25.146c-0.11 0.109-0.261 0.176-0.428 0.176s-0.317-0.067-0.427-0.175l0 0c-0.109-0.108-0.176-0.257-0.176-0.422s0.067-0.314 0.176-0.422l0-0 0.962-0.959 0.852 0.848-0.959 0.954zM5.678 28.88c-0.11 0.109-0.261 0.176-0.428 0.176s-0.317-0.067-0.427-0.175l0 0c-0.109-0.108-0.176-0.257-0.176-0.422s0.067-0.314 0.176-0.422l0-0 0.963-0.959 0.852 0.848-0.96 0.955zM9.16 25.411l-0.001 0.001-1.765 1.76-0.852-0.848 1.765-1.757c0.040-0.040 0.065-0.088 0.090-0.136 0.007-0.014 0.020-0.026 0.026-0.040 0.016-0.041 0.019-0.085 0.026-0.128 0.003-0.025 0.014-0.048 0.014-0.073 0-0.035-0.013-0.070-0.020-0.105-0.006-0.032-0.006-0.064-0.019-0.096-0.025-0.053-0.055-0.098-0.092-0.138l0 0c-0.010-0.012-0.014-0.026-0.025-0.038h-0.001s0-0.001-0.001-0.002l-1.607-1.6c-0.017-0.017-0.039-0.024-0.058-0.038-0.025-0.021-0.054-0.040-0.084-0.056l-0.003-0.001c-0.026-0.012-0.058-0.023-0.090-0.031l-0.003-0.001c-0.030-0.009-0.065-0.017-0.101-0.020l-0.002-0c-0.007-0-0.015-0-0.023-0-0.026 0-0.051 0.002-0.075 0.005l0.003-0c-0.036 0.005-0.069 0.009-0.104 0.021s-0.064 0.027-0.094 0.045c-0.020 0.011-0.043 0.015-0.061 0.029l-1.774 1.324-0.901-0.897 2.399-2.386 4.36 4.289-0.928 0.919zM15.979 18.394c-0.016-0.002-0.030 0.004-0.046 0.003-0.008-0-0.017-0.001-0.027-0.001-0.031 0-0.062 0.003-0.092 0.008l0.003-0c-0.070 0.011-0.132 0.035-0.187 0.070l0.002-0.001c-0.030 0.018-0.057 0.037-0.083 0.061-0.013 0.011-0.028 0.016-0.040 0.029l-4.698 5.146-4.328-4.256 2.833-2.818c0.096-0.097 0.156-0.23 0.156-0.377 0-0.295-0.239-0.534-0.534-0.534-0.001 0-0.001 0-0.002 0h0l-2.219 0.013 0.028-1.607 3.104 0.027c1.264 1.297 3.027 2.101 4.978 2.101 0.001 0 0.002 0 0.003 0h-0c0.438 0 0.864-0.046 1.28-0.122 0.040 0.032 0.080 0.064 0.129 0.085l2.41 0.96 0.152 0.758 0.178 0.886-3.003-0.427zM20.020 18.572l-0.313-1.558 1.446-1.080 0.946 1.257-2.080 1.381zM23.773 15.741l-0.837 0.785-0.931-1.236 0.831-0.637c0.155-0.119 0.351-0.168 0.543-0.143 0.193 0.027 0.364 0.128 0.48 0.284 0.088 0.117 0.141 0.265 0.141 0.426 0 0.206-0.087 0.391-0.226 0.521l-0 0z"></path>
<path fill="#212121" style="fill: var(--color1, #212121)" d="M13.602 18.544l-2.143-2.134c-0.096-0.096-0.229-0.155-0.376-0.155s-0.28 0.059-0.376 0.155l-2.143 2.133c-0.097 0.097-0.156 0.23-0.156 0.378s0.060 0.281 0.156 0.378l-0-0 2.142 2.134c0.096 0.096 0.229 0.156 0.376 0.156s0.28-0.059 0.376-0.156v0l2.143-2.134c0.097-0.097 0.157-0.23 0.157-0.378s-0.060-0.281-0.157-0.378l-0-0zM11.083 20.303l-1.387-1.381 1.386-1.381 1.387 1.381-1.387 1.381zM17.164 5.071l-0.258 1.036c0.071 0.018 1.738 0.452 1.738 2.149h1.067c0-2.017-1.666-2.965-2.547-3.184zM19.711 9.322h-1.067v1.066h1.067v-1.066z"></path>
</symbol>
<symbol id="icon-clock" viewBox="0 0 32 32">
<path fill="#212121" style="fill: var(--color1, #212121)" d="M31.296 15.301c-0.001-8.452-6.855-15.303-15.308-15.301s-15.303 6.855-15.301 15.308c0.002 6.788 4.422 12.543 10.541 14.545l0.108 0.031c0.061 0.019 0.123 0.029 0.187 0.029 0.12 0 0.238-0.032 0.342-0.094 0.135-0.080 0.236-0.207 0.283-0.357l3.865-12.25c1.054-0.004 1.906-0.859 1.906-1.913 0-1.056-0.856-1.913-1.913-1.913-0.303 0-0.59 0.071-0.845 0.196l0.011-0.005-5.106-5.107c-0.114-0.11-0.271-0.179-0.443-0.179-0.352 0-0.638 0.286-0.638 0.638 0 0.172 0.068 0.328 0.179 0.443l-0-0 5.103 5.109c-0.121 0.241-0.191 0.525-0.191 0.826 0 0.602 0.283 1.137 0.723 1.48l0.004 0.003-3.682 11.673c-7.278-2.681-11.004-10.754-8.324-18.032s10.754-11.004 18.032-8.323c7.278 2.681 11.004 10.754 8.323 18.032-1.345 3.581-4.003 6.406-7.374 7.938l-0.088 0.036-0.398-1.874c-0.063-0.291-0.318-0.506-0.624-0.506-0.164 0-0.313 0.062-0.426 0.163l0.001-0.001-3.837 3.426c-0.132 0.117-0.214 0.287-0.214 0.477 0 0.283 0.185 0.524 0.441 0.606l0.005 0.001 4.899 1.563c0.058 0.020 0.126 0.031 0.196 0.031 0.352 0 0.637-0.285 0.637-0.637 0-0.047-0.005-0.093-0.015-0.138l0.001 0.004-0.391-1.839c5.528-2.374 9.329-7.772 9.329-14.057 0-0.011 0-0.023-0-0.034v0.002zM15.992 14.664c0.352 0 0.638 0.286 0.638 0.638s-0.285 0.638-0.638 0.638v0c-0.352 0-0.638-0.286-0.638-0.638s0.286-0.638 0.638-0.638v0zM18.092 29.528l2.184-1.948 0.603 2.84-2.787-0.892z"></path>
<path fill="#2196f3" style="fill: var(--color2, #2196f3)" d="M15.354 3.185v1.275c0 0.352 0.286 0.638 0.638 0.638s0.638-0.285 0.638-0.638v0-1.275c0-0.352-0.285-0.638-0.638-0.638s-0.638 0.285-0.638 0.638v0zM3.876 14.664c-0.352 0-0.638 0.286-0.638 0.638s0.285 0.638 0.638 0.638h1.275c0.352 0 0.638-0.286 0.638-0.638s-0.285-0.638-0.638-0.638h-1.275zM28.108 15.939c0.352 0 0.638-0.286 0.638-0.638s-0.285-0.638-0.638-0.638h-1.275c-0.352 0-0.638 0.286-0.638 0.638s0.285 0.638 0.638 0.638h1.275z"></path>
</symbol>
<symbol id="icon-diagram" viewBox="0 0 32 32">
<path fill="#2196f3" style="fill: var(--color2, #2196f3)" d="M14.926 14.965h1.066v4.798h-1.066v-4.798zM19.19 17.097h1.066v2.665h-1.066v-2.665zM10.661 18.696h1.066v1.066h-1.066v-1.066zM7.463 18.163h1.066v1.599h-1.066v-1.599z"></path>
<path fill="#212121" style="fill: var(--color1, #212121)" d="M1.599 28.291h25.586c0 0 0 0 0 0 0.883 0 1.599-0.716 1.599-1.599v0-2.132c0-0.883-0.716-1.599-1.599-1.599v0h-0.533v-13.294l3.028-2.868c0.207 0.104 0.452 0.166 0.711 0.166 0.888 0 1.608-0.72 1.608-1.608s-0.72-1.608-1.608-1.608c-0.888 0-1.608 0.72-1.608 1.608 0 0.247 0.056 0.481 0.155 0.69l-0.004-0.010-2.281 2.162v-1.23c0-0.883-0.716-1.599-1.599-1.599v0h-21.323c-0.883 0-1.599 0.716-1.599 1.599v0 15.992h-0.533c-0.883 0-1.599 0.716-1.599 1.599v0 2.132c0 0.883 0.716 1.599 1.599 1.599v0zM30.384 4.837c0.294 0 0.533 0.239 0.533 0.533s-0.239 0.533-0.533 0.533v0c-0.294 0-0.533-0.239-0.533-0.533s0.239-0.533 0.533-0.533v0zM3.198 6.969c0-0.294 0.239-0.533 0.533-0.533h21.323c0.294 0 0.533 0.239 0.533 0.533v2.239l-1.066 1.013v-2.185c0-0.295-0.239-0.534-0.534-0.534h-19.189c-0.294 0-0.534 0.239-0.534 0.533v13.327c0 0.294 0.239 0.533 0.534 0.533h19.189c0.295 0 0.534-0.239 0.534-0.533v-9.675l1.066-1.010v12.283h-22.389v-15.991zM7.996 13.899c-0.001 0-0.003 0-0.005 0-0.883 0-1.599 0.716-1.599 1.599s0.716 1.599 1.599 1.599c0.432 0 0.824-0.172 1.112-0.45l-0 0 1.853 0.93c0.215 0.107 0.476 0.057 0.636-0.122l3.939-4.432 3.872 2.902c0.208 0.155 0.498 0.139 0.686-0.039l3.365-3.188v8.131h-18.123v-12.261h18.123v2.661l-3.771 3.572-3.904-2.927c-0.088-0.067-0.2-0.107-0.32-0.107-0.158 0-0.3 0.069-0.398 0.178l-0 0.001-3.993 4.493-1.493-0.746c0.011-0.064 0.017-0.128 0.020-0.193 0-0.883-0.716-1.599-1.599-1.599v0zM8.529 15.498c0 0.294-0.239 0.533-0.533 0.533s-0.533-0.239-0.533-0.533v0c0-0.294 0.239-0.533 0.533-0.533s0.533 0.239 0.533 0.533v0zM11.727 24.026h5.33v0.533c0 0.294-0.238 0.533-0.533 0.533h-4.265c-0.294 0-0.533-0.239-0.533-0.533v0-0.533zM1.067 24.56c0-0.294 0.238-0.533 0.533-0.533h9.062v0.533c0 0.883 0.716 1.599 1.599 1.599v0h4.265c0.883 0 1.599-0.716 1.599-1.599v0-0.533h9.062c0.294 0 0.533 0.239 0.533 0.533v2.132c0 0.294-0.239 0.533-0.533 0.533h-25.586c-0 0-0 0-0 0-0.294 0-0.533-0.239-0.533-0.533 0 0 0 0 0 0v0-2.132z"></path>
</symbol>
<symbol id="icon-envelope-hover" viewBox="0 0 43 32">
<path  style="" d="M38.667 0h-34.667c-2.205 0-4 1.795-4 4v24c0 2.205 1.795 4 4 4h34.667c2.205 0 4-1.795 4-4v-24c0-2.205-1.795-4-4-4zM38.667 2.667c0.181 0 0.355 0.037 0.512 0.104l-17.845 15.467-17.845-15.467c0.151-0.065 0.327-0.104 0.512-0.104h34.667zM38.667 29.333h-34.667c-0.736 0-1.333-0.597-1.333-1.333v0-22.413l17.792 15.421c0.233 0.203 0.539 0.327 0.875 0.327s0.642-0.124 0.876-0.328l-0.002 0.001 17.792-15.421v22.413c0 0.736-0.597 1.333-1.333 1.333v0z"></path>
</symbol>
<symbol id="icon-Client-1" viewBox="0 0 57 32">
<path  d="M19.733 2.667l3.897 3.69h10.872v10.292l3.897 3.69v-17.671h-18.667z"></path>
<path  d="M16.533 6.201v17.166h18.133v-6.824l-10.921-10.339-7.212-0.004zM31.212 20.856h-11.81v-11.545h0.835v10.764h10.975v0.782z"></path>
<path  d="M21.755 26.551l0.436-0.898h0.365l-0.635 1.198v0.698h-0.331v-0.698l-0.637-1.198h0.366l0.436 0.898zM23.628 27.107h-0.734l-0.154 0.441h-0.342l0.716-1.896h0.296l0.717 1.896h-0.344l-0.155-0.441zM22.986 26.842h0.549l-0.275-0.786-0.275 0.786zM24.926 27.037c0-0.088 0.024-0.168 0.072-0.241s0.142-0.161 0.283-0.262c-0.074-0.093-0.125-0.172-0.155-0.237s-0.043-0.128-0.043-0.189c0-0.148 0.045-0.266 0.135-0.352s0.212-0.13 0.365-0.13c0.138 0 0.251 0.041 0.339 0.122s0.133 0.181 0.133 0.301c0 0.079-0.020 0.152-0.060 0.219s-0.105 0.132-0.197 0.198l-0.129 0.094 0.366 0.432c0.053-0.104 0.079-0.22 0.079-0.348h0.275c0 0.233-0.055 0.425-0.164 0.574l0.279 0.329h-0.367l-0.107-0.126c-0.135 0.102-0.297 0.152-0.484 0.152s-0.338-0.049-0.451-0.148c-0.112-0.1-0.168-0.23-0.168-0.389zM25.553 27.322c0.107 0 0.207-0.036 0.299-0.107l-0.414-0.488-0.040 0.029c-0.104 0.079-0.156 0.169-0.156 0.271 0 0.088 0.028 0.159 0.085 0.214s0.132 0.082 0.227 0.082zM25.379 26.101c0 0.073 0.045 0.164 0.134 0.275l0.145-0.099 0.040-0.033c0.054-0.048 0.081-0.109 0.081-0.184 0-0.049-0.019-0.092-0.056-0.126s-0.085-0.053-0.142-0.053c-0.062 0-0.111 0.021-0.147 0.063s-0.055 0.094-0.055 0.158zM28.823 26.932c-0.019 0.202-0.094 0.36-0.224 0.474s-0.303 0.169-0.52 0.169c-0.151 0-0.284-0.036-0.4-0.107s-0.203-0.174-0.266-0.306-0.095-0.285-0.098-0.46v-0.177c0-0.179 0.032-0.336 0.095-0.473s0.154-0.241 0.272-0.315c0.119-0.074 0.256-0.111 0.411-0.111 0.209 0 0.378 0.057 0.505 0.171s0.202 0.274 0.223 0.482h-0.328c-0.016-0.136-0.056-0.234-0.12-0.294s-0.157-0.091-0.28-0.091c-0.143 0-0.253 0.053-0.331 0.158s-0.115 0.257-0.117 0.46v0.168c0 0.205 0.036 0.361 0.109 0.469s0.181 0.161 0.323 0.161c0.129 0 0.227-0.029 0.292-0.087s0.106-0.155 0.124-0.29h0.328zM30.632 26.65c0 0.186-0.032 0.349-0.096 0.49s-0.156 0.247-0.276 0.323c-0.119 0.075-0.256 0.112-0.411 0.112-0.154 0-0.291-0.037-0.411-0.112s-0.213-0.183-0.279-0.322c-0.065-0.139-0.098-0.299-0.099-0.48v-0.107c0-0.185 0.033-0.348 0.098-0.49s0.158-0.25 0.277-0.324c0.12-0.076 0.257-0.113 0.411-0.113s0.291 0.037 0.41 0.112c0.12 0.074 0.212 0.181 0.277 0.32s0.098 0.301 0.099 0.486v0.105zM30.302 26.551c0-0.21-0.040-0.371-0.12-0.483s-0.191-0.168-0.337-0.168c-0.142 0-0.254 0.056-0.335 0.168s-0.121 0.269-0.122 0.473v0.109c0 0.208 0.040 0.369 0.121 0.483s0.194 0.171 0.339 0.171c0.146 0 0.258-0.056 0.336-0.167s0.119-0.273 0.119-0.487v-0.099z"></path>
</symbol>
<symbol id="icon-Client-2" viewBox="0 0 57 32">
<path fill="#afb1b8" style="fill: var(--color1, #afb1b8)" d="M26.654 3.698h0.073c0.135 0 0.281 0.014 0.425 0.026 0.636 0.045 1.268 0.14 1.889 0.285v-1.527c-0.64-0.16-1.292-0.264-1.95-0.311-0.25-0.019-0.515-0.031-0.788-0.038h-0.228c-1.32 0.005-2.634 0.174-3.913 0.504-1.456 0.363-2.854 0.932-4.151 1.689v15.145c1.249-0.679 2.579-1.197 3.957-1.542 1.088-0.278 2.201-0.448 3.322-0.51h0.044c0.188-0.009 0.375-0.015 0.568-0.016v-1.551c-1.457 0.019-2.906 0.211-4.317 0.574-0.522 0.136-1.027 0.282-1.5 0.445l-0.54 0.183v-11.809l0.231-0.111c1.761-0.835 3.665-1.321 5.609-1.431 0.016-0.001 0.032-0.001 0.049 0 0.215-0.011 0.43-0.016 0.642-0.016h0.243c0.112 0.003 0.224 0.005 0.336 0.012z"></path>
<path fill="#afb1b8" style="fill: var(--color1, #afb1b8)" d="M30.459 5.297c-0.355 0-0.706-0.012-1.044-0.038-0.405-0.030-0.82-0.079-1.214-0.145-0.24-0.041-0.476-0.090-0.706-0.142v14.971c0.971 0.24 1.968 0.358 2.968 0.35 1.32-0.005 2.634-0.174 3.913-0.503 1.456-0.364 2.854-0.932 4.153-1.688v-14.875c-1.249 0.679-2.578 1.197-3.956 1.543-1.344 0.345-2.726 0.522-4.114 0.528v0zM36.446 5.556l0.54-0.182v11.813l-0.231 0.111c-0.885 0.421-1.809 0.753-2.759 0.991-1.154 0.298-2.34 0.452-3.531 0.457-0.356 0-0.71-0.015-1.052-0.045l-0.37-0.033v-12.148l0.43 0.028c0.313 0.020 0.637 0.030 0.989 0.030 1.512-0.005 3.018-0.199 4.483-0.575 0.503-0.133 1.004-0.282 1.5-0.449z"></path>
<path fill="#afb1b8" style="fill: var(--color1, #afb1b8)" d="M19.060 24.647c-0.078-0.080-0.171-0.144-0.275-0.186s-0.214-0.061-0.326-0.057c-0.119-0.002-0.237 0.021-0.347 0.065-0.101 0.040-0.193 0.101-0.27 0.178s-0.135 0.17-0.174 0.271c-0.042 0.107-0.063 0.22-0.062 0.335v2.023c-0.005 0.143 0.022 0.284 0.080 0.415 0.048 0.104 0.117 0.196 0.202 0.271 0.081 0.068 0.176 0.117 0.278 0.144 0.098 0.028 0.2 0.042 0.302 0.042 0.113 0.001 0.224-0.023 0.326-0.070 0.101-0.044 0.193-0.108 0.27-0.187 0.075-0.079 0.135-0.171 0.177-0.271 0.043-0.102 0.065-0.212 0.065-0.323v-0.226h-0.529v0.18c0.002 0.062-0.009 0.123-0.031 0.18-0.017 0.043-0.043 0.082-0.077 0.114-0.033 0.026-0.070 0.046-0.111 0.058-0.036 0.012-0.073 0.018-0.111 0.019-0.047 0.006-0.095-0.002-0.139-0.021s-0.081-0.049-0.11-0.088c-0.050-0.081-0.074-0.176-0.070-0.271v-1.887c-0.003-0.105 0.019-0.208 0.065-0.302 0.027-0.043 0.066-0.077 0.112-0.098s0.097-0.030 0.147-0.024c0.046-0.002 0.091 0.008 0.132 0.028s0.077 0.049 0.104 0.086c0.059 0.078 0.090 0.173 0.088 0.271v0.175h0.524v-0.206c0.001-0.121-0.021-0.241-0.065-0.354-0.039-0.106-0.099-0.203-0.177-0.285v0z"></path>
<path fill="#afb1b8" style="fill: var(--color1, #afb1b8)" d="M22.202 24.624c-0.169-0.142-0.381-0.221-0.602-0.222-0.108 0-0.215 0.020-0.316 0.057-0.103 0.037-0.198 0.093-0.279 0.165-0.088 0.079-0.158 0.175-0.205 0.283-0.053 0.124-0.080 0.257-0.077 0.392v1.941c-0.004 0.137 0.023 0.272 0.077 0.397 0.048 0.104 0.118 0.197 0.205 0.271 0.081 0.075 0.176 0.133 0.279 0.171 0.101 0.037 0.208 0.056 0.316 0.057s0.215-0.020 0.316-0.057c0.105-0.038 0.202-0.096 0.286-0.171 0.084-0.076 0.152-0.168 0.2-0.271 0.054-0.125 0.081-0.261 0.077-0.397v-1.941c0.003-0.135-0.024-0.268-0.077-0.392-0.047-0.107-0.115-0.203-0.2-0.283v0zM21.955 27.24c0.004 0.052-0.003 0.104-0.021 0.152s-0.047 0.092-0.084 0.128c-0.070 0.059-0.158 0.091-0.249 0.091s-0.179-0.032-0.249-0.091c-0.037-0.036-0.066-0.080-0.084-0.128s-0.025-0.101-0.021-0.152v-1.941c-0.004-0.052 0.003-0.104 0.021-0.152s0.047-0.092 0.084-0.128c0.070-0.059 0.158-0.091 0.249-0.091s0.179 0.032 0.249 0.091c0.037 0.036 0.066 0.080 0.084 0.128s0.025 0.101 0.021 0.152v1.941z"></path>
<path fill="#afb1b8" style="fill: var(--color1, #afb1b8)" d="M26.329 28.106v-3.674h-0.509l-0.668 1.945h-0.009l-0.673-1.945h-0.503v3.674h0.525v-2.235h0.009l0.514 1.58h0.262l0.518-1.58h0.009v2.235h0.525z"></path>
<path fill="#afb1b8" style="fill: var(--color1, #afb1b8)" d="M29.311 24.69c-0.081-0.091-0.183-0.16-0.297-0.201-0.123-0.040-0.251-0.059-0.38-0.057h-0.78v3.674h0.523v-1.435h0.27c0.163 0.007 0.326-0.027 0.472-0.1 0.119-0.066 0.218-0.163 0.287-0.281 0.061-0.098 0.101-0.206 0.12-0.32 0.021-0.138 0.030-0.278 0.028-0.418 0.005-0.176-0.012-0.353-0.051-0.525-0.035-0.127-0.101-0.243-0.193-0.338v0zM29.041 25.81c-0.002 0.067-0.019 0.132-0.049 0.191-0.030 0.056-0.077 0.102-0.135 0.129-0.078 0.035-0.162 0.050-0.247 0.046h-0.239v-1.249h0.27c0.081-0.004 0.162 0.012 0.236 0.046 0.054 0.031 0.097 0.079 0.123 0.136 0.029 0.065 0.044 0.134 0.046 0.205 0 0.077 0 0.159 0 0.244s0.005 0.174 0 0.252h-0.005z"></path>
<path fill="#afb1b8" style="fill: var(--color1, #afb1b8)" d="M31.791 24.432h-0.429l-0.809 3.674h0.523l0.154-0.789h0.714l0.154 0.789h0.523l-0.83-3.674zM31.308 26.817l0.258-1.332h0.009l0.256 1.332h-0.523z"></path>
<path fill="#afb1b8" style="fill: var(--color1, #afb1b8)" d="M35.173 26.646h-0.009l-0.791-2.213h-0.503v3.674h0.523v-2.209h0.011l0.8 2.209h0.492v-3.674h-0.523v2.213z"></path>
<path fill="#afb1b8" style="fill: var(--color1, #afb1b8)" d="M38.372 24.432l-0.421 1.461h-0.011l-0.421-1.461h-0.554l0.719 2.121v1.553h0.524v-1.553l0.719-2.121h-0.554z"></path>
<path fill="#afb1b8" style="fill: var(--color1, #afb1b8)" d="M17.6 29.144h0.252v0.708h0.171v-0.708h0.251v-0.145h-0.675v0.145z"></path>
<path fill="#afb1b8" style="fill: var(--color1, #afb1b8)" d="M19.721 28.999l-0.331 0.853h0.182l0.070-0.194h0.34l0.073 0.194h0.186l-0.339-0.853h-0.182zM19.694 29.514l0.116-0.316 0.116 0.316h-0.232z"></path>
<path fill="#afb1b8" style="fill: var(--color1, #afb1b8)" d="M21.818 29.537h0.197v0.11c-0.058 0.046-0.129 0.071-0.202 0.072-0.034 0.002-0.069-0.004-0.1-0.019s-0.059-0.036-0.081-0.063c-0.045-0.065-0.068-0.143-0.063-0.222 0-0.19 0.082-0.285 0.246-0.285 0.043-0.004 0.086 0.007 0.121 0.032s0.061 0.062 0.072 0.104l0.169-0.033c-0.036-0.167-0.156-0.251-0.362-0.251-0.11-0.003-0.216 0.036-0.298 0.11-0.043 0.042-0.076 0.094-0.097 0.15s-0.030 0.117-0.025 0.178c-0.005 0.117 0.034 0.231 0.109 0.32 0.042 0.043 0.092 0.077 0.148 0.098s0.116 0.031 0.176 0.027c0.134 0.004 0.263-0.045 0.362-0.136v-0.336h-0.37v0.144z"></path>
<path fill="#afb1b8" style="fill: var(--color1, #afb1b8)" d="M23.959 28.999h-0.173v0.853h0.598v-0.145h-0.425v-0.708z"></path>
<path fill="#afb1b8" style="fill: var(--color1, #afb1b8)" d="M25.769 28.999h-0.173v0.853h0.173v-0.853z"></path>
<path fill="#afb1b8" style="fill: var(--color1, #afb1b8)" d="M27.539 29.568l-0.349-0.57h-0.167v0.853h0.161v-0.557l0.343 0.557h0.171v-0.853h-0.158v0.57z"></path>
<path fill="#afb1b8" style="fill: var(--color1, #afb1b8)" d="M29.14 29.476h0.425v-0.145h-0.425v-0.187h0.457v-0.145h-0.63v0.853h0.648v-0.145h-0.475v-0.231z"></path>
<path fill="#afb1b8" style="fill: var(--color1, #afb1b8)" d="M33.020 29.335h-0.336v-0.336h-0.171v0.853h0.171v-0.373h0.336v0.373h0.171v-0.853h-0.171v0.336z"></path>
<path fill="#afb1b8" style="fill: var(--color1, #afb1b8)" d="M34.629 29.476h0.426v-0.145h-0.426v-0.187h0.459v-0.145h-0.63v0.853h0.646v-0.145h-0.475v-0.231z"></path>
<path fill="#afb1b8" style="fill: var(--color1, #afb1b8)" d="M36.813 29.476c0.148-0.023 0.224-0.102 0.224-0.237 0.004-0.036-0.001-0.073-0.016-0.106s-0.038-0.062-0.068-0.083c-0.077-0.039-0.163-0.056-0.25-0.050h-0.362v0.853h0.171v-0.357h0.034c0.037-0.002 0.073 0.004 0.107 0.019 0.025 0.015 0.046 0.037 0.061 0.062l0.186 0.271h0.205l-0.104-0.167c-0.046-0.082-0.111-0.153-0.189-0.205v0zM36.64 29.358h-0.127v-0.214h0.135c0.059-0.005 0.118 0.002 0.174 0.020 0.012 0.011 0.022 0.025 0.029 0.040s0.010 0.032 0.009 0.049c-0.001 0.017-0.005 0.033-0.013 0.048s-0.019 0.027-0.032 0.037c-0.056 0.017-0.115 0.024-0.174 0.020v0z"></path>
<path fill="#afb1b8" style="fill: var(--color1, #afb1b8)" d="M38.458 29.476h0.425v-0.145h-0.425v-0.187h0.459v-0.145h-0.631v0.853h0.648v-0.145h-0.475v-0.231z"></path>
</symbol>
<symbol id="icon-Client-3" viewBox="0 0 57 32">
<path fill="#afb1b8" style="fill: var(--color1, #afb1b8)" d="M20.451 27.090c0.008 0 0.016 0.002 0.023 0.005s0.014 0.008 0.019 0.013l0.11 0.115c-0.085 0.093-0.191 0.168-0.309 0.218-0.138 0.055-0.288 0.082-0.438 0.078-0.141 0.003-0.281-0.022-0.412-0.073-0.118-0.047-0.223-0.117-0.31-0.207-0.088-0.093-0.157-0.201-0.2-0.319-0.048-0.132-0.072-0.27-0.070-0.409-0.002-0.14 0.024-0.279 0.075-0.41 0.048-0.119 0.12-0.227 0.213-0.319 0.094-0.090 0.206-0.161 0.329-0.208 0.135-0.050 0.279-0.075 0.424-0.073 0.135-0.003 0.268 0.020 0.394 0.067 0.109 0.045 0.208 0.107 0.295 0.184l-0.092 0.123c-0.006 0.009-0.014 0.016-0.023 0.022-0.011 0.007-0.024 0.010-0.037 0.009-0.014-0.001-0.028-0.005-0.040-0.013l-0.049-0.033-0.069-0.042c-0.030-0.016-0.060-0.029-0.092-0.041-0.041-0.014-0.082-0.025-0.125-0.033-0.054-0.009-0.108-0.014-0.163-0.013-0.104-0.001-0.208 0.017-0.305 0.055-0.090 0.035-0.171 0.087-0.239 0.154-0.068 0.071-0.121 0.155-0.155 0.246-0.039 0.104-0.058 0.214-0.056 0.324-0.002 0.112 0.017 0.224 0.056 0.329 0.034 0.090 0.085 0.173 0.152 0.244 0.063 0.066 0.141 0.118 0.228 0.152 0.090 0.035 0.186 0.053 0.283 0.052 0.056 0.001 0.112-0.003 0.167-0.010 0.090-0.011 0.177-0.040 0.254-0.088 0.038-0.024 0.075-0.051 0.108-0.081 0.014-0.013 0.033-0.020 0.052-0.021v0z"></path>
<path fill="#afb1b8" style="fill: var(--color1, #afb1b8)" d="M23.62 26.512c0.002 0.139-0.023 0.276-0.074 0.407-0.045 0.118-0.115 0.226-0.207 0.316s-0.202 0.161-0.324 0.207c-0.269 0.098-0.566 0.098-0.834 0-0.121-0.047-0.231-0.118-0.322-0.208-0.091-0.092-0.162-0.2-0.208-0.319-0.099-0.263-0.099-0.551 0-0.814 0.047-0.119 0.118-0.228 0.208-0.32 0.092-0.087 0.202-0.155 0.322-0.2 0.268-0.099 0.566-0.099 0.834 0 0.122 0.047 0.232 0.118 0.324 0.208 0.090 0.091 0.161 0.198 0.207 0.315 0.051 0.131 0.076 0.27 0.074 0.409zM23.332 26.512c0.002-0.111-0.015-0.221-0.052-0.327-0.031-0.090-0.081-0.173-0.147-0.244-0.064-0.067-0.144-0.12-0.232-0.154-0.195-0.071-0.411-0.071-0.606 0-0.088 0.034-0.167 0.087-0.232 0.154-0.067 0.071-0.117 0.154-0.148 0.244-0.070 0.213-0.070 0.441 0 0.654 0.031 0.090 0.081 0.174 0.148 0.244 0.064 0.067 0.144 0.119 0.232 0.153 0.196 0.070 0.411 0.070 0.606 0 0.088-0.034 0.167-0.086 0.232-0.153 0.066-0.071 0.116-0.154 0.147-0.244 0.037-0.105 0.054-0.216 0.052-0.327v0z"></path>
<path fill="#afb1b8" style="fill: var(--color1, #afb1b8)" d="M25.782 26.855l0.029 0.073c0.011-0.026 0.021-0.050 0.032-0.073 0.011-0.025 0.022-0.049 0.036-0.072l0.701-1.214c0.014-0.021 0.026-0.034 0.040-0.038 0.019-0.005 0.038-0.008 0.058-0.006h0.207v1.975h-0.246v-1.452c0-0.018 0-0.039 0-0.061-0.001-0.023-0.001-0.045 0-0.068l-0.705 1.231c-0.009 0.018-0.023 0.034-0.041 0.045s-0.039 0.017-0.060 0.016h-0.040c-0.021 0-0.042-0.005-0.060-0.016s-0.032-0.027-0.041-0.045l-0.726-1.239c0 0.024 0 0.047 0 0.071s0 0.044 0 0.063v1.452h-0.237v-1.971h0.207c0.019-0.001 0.039 0.001 0.058 0.006 0.017 0.008 0.031 0.021 0.038 0.038l0.716 1.215c0.014 0.022 0.026 0.046 0.036 0.071v0z"></path>
<path fill="#afb1b8" style="fill: var(--color1, #afb1b8)" d="M28.42 26.757v0.74h-0.274v-1.972h0.612c0.116-0.002 0.231 0.012 0.342 0.043 0.089 0.024 0.171 0.066 0.241 0.123 0.061 0.053 0.108 0.12 0.137 0.193 0.032 0.080 0.048 0.166 0.047 0.252 0.001 0.087-0.016 0.172-0.051 0.252-0.033 0.076-0.084 0.143-0.148 0.197-0.070 0.059-0.153 0.104-0.243 0.131-0.107 0.032-0.218 0.048-0.331 0.046l-0.332-0.005zM28.42 26.545h0.332c0.072 0.001 0.144-0.009 0.213-0.030 0.057-0.018 0.109-0.047 0.154-0.085 0.041-0.036 0.073-0.081 0.093-0.131 0.022-0.053 0.034-0.109 0.033-0.166 0.003-0.055-0.006-0.11-0.028-0.161s-0.054-0.097-0.096-0.135c-0.105-0.078-0.236-0.116-0.369-0.106h-0.332v0.813z"></path>
<path fill="#afb1b8" style="fill: var(--color1, #afb1b8)" d="M32.107 27.499h-0.217c-0.022 0.001-0.043-0.006-0.060-0.018-0.016-0.012-0.028-0.028-0.036-0.046l-0.187-0.477h-0.937l-0.193 0.477c-0.007 0.017-0.019 0.033-0.034 0.044-0.017 0.013-0.039 0.020-0.062 0.020h-0.217l0.823-1.975h0.285l0.834 1.975zM30.749 26.766h0.774l-0.326-0.804c-0.025-0.060-0.046-0.122-0.062-0.186l-0.032 0.103c-0.010 0.031-0.021 0.060-0.030 0.084l-0.324 0.802z"></path>
<path fill="#afb1b8" style="fill: var(--color1, #afb1b8)" d="M33.292 25.534c0.016 0.009 0.031 0.021 0.041 0.035l1.2 1.489c0-0.024 0-0.047 0-0.069s0-0.044 0-0.065v-1.398h0.246v1.975h-0.137c-0.019 0.001-0.039-0.003-0.056-0.012-0.017-0.009-0.032-0.022-0.044-0.037l-1.199-1.487c0.001 0.023 0.001 0.045 0 0.068 0 0.022 0 0.042 0 0.060v1.408h-0.246v-1.975h0.145c0.017-0 0.034 0.003 0.049 0.009v0z"></path>
<path fill="#afb1b8" style="fill: var(--color1, #afb1b8)" d="M36.801 26.714v0.784h-0.274v-0.784l-0.759-1.189h0.246c0.021-0.001 0.042 0.005 0.059 0.017 0.015 0.013 0.027 0.028 0.037 0.044l0.475 0.767c0.019 0.033 0.036 0.063 0.049 0.091s0.025 0.056 0.034 0.084l0.036-0.085c0.013-0.031 0.029-0.061 0.047-0.090l0.468-0.772c0.010-0.015 0.022-0.029 0.036-0.042 0.016-0.014 0.037-0.021 0.059-0.020h0.248l-0.76 1.195z"></path>
<path fill="#afb1b8" style="fill: var(--color1, #afb1b8)" d="M25.646 22.21c0.119 0.014 0.24 0.026 0.362 0.037 1.851-0.789 3.417-2.080 4.502-3.712s1.641-3.533 1.599-5.464l-2.040-1.943c0.415 2.056 0.221 4.182-0.56 6.14s-2.118 3.669-3.862 4.944v0z"></path>
<path fill="#afb1b8" style="fill: var(--color1, #afb1b8)" d="M24.917 22.12l0.055 0.010c1.864-1.27 3.284-3.043 4.079-5.091s0.926-4.275 0.377-6.394l-2.905-2.768c1.175 2.275 1.648 4.822 1.364 7.343s-1.314 4.914-2.969 6.9v0z"></path>
<path fill="#afb1b8" style="fill: var(--color1, #afb1b8)" d="M34.771 15.353c-0.494 2.122-1.692 4.036-3.419 5.458-0.504 0.417-1.048 0.789-1.624 1.111 1.406-0.394 2.697-1.089 3.776-2.034s1.915-2.112 2.445-3.413l-1.178-1.121z"></path>
<path fill="#afb1b8" style="fill: var(--color1, #afb1b8)" d="M34.309 15.040l-1.678-1.598c-0.032 1.822-0.576 3.603-1.575 5.158s-2.417 2.826-4.106 3.681h0.008c0.376-0 0.752-0.022 1.126-0.064 1.579-0.614 2.973-1.59 4.059-2.843s1.83-2.741 2.165-4.334v0z"></path>
<path fill="#afb1b8" style="fill: var(--color1, #afb1b8)" d="M25.16 6.71l-2.002-1.909c-1.789 0.659-3.328 1.817-4.415 3.322s-1.672 3.289-1.677 5.117v0c0.007 2.019 0.72 3.979 2.027 5.568s3.133 2.718 5.19 3.208c1.836-2.131 2.91-4.764 3.068-7.516s-0.61-5.481-2.191-7.79v0z"></path>
<path fill="#afb1b8" style="fill: var(--color1, #afb1b8)" d="M38.933 14.746c-0.007-2.396-1.009-4.692-2.788-6.386s-4.188-2.649-6.703-2.656v0c-1.162-0.001-2.314 0.203-3.398 0.603l12.254 11.675c0.42-1.032 0.635-2.129 0.634-3.236v0z"></path>
</symbol>
<symbol id="icon-Client-4" viewBox="0 0 57 32">
<path  d="M13.548 11.643h-0.001c-1.207 0-2.185 0.953-2.185 2.129v0.001c0 1.176 0.978 2.129 2.185 2.129h0.001c1.207 0 2.185-0.953 2.185-2.129v-0.001c0-1.176-0.978-2.129-2.185-2.129z"></path>
<path  d="M29.673 10.962c-0.003-1.633-0.671-3.198-1.855-4.353s-2.791-1.805-4.467-1.809v0c-1.676 0.003-3.283 0.653-4.469 1.808s-1.853 2.721-1.856 4.354v0 9.006c0 0 12.646-1.373 12.647-9.004v-0.001z"></path>
<path  d="M6.933 22.924c0.003 1.136 0.468 2.225 1.292 3.029s1.942 1.257 3.108 1.26v0c1.166-0.003 2.283-0.456 3.107-1.259s1.289-1.892 1.292-3.028v0-6.266c0 0-8.799 0.956-8.799 6.265zM11.333 24.047c-0.228 0-0.451-0.066-0.64-0.189s-0.337-0.299-0.424-0.504-0.11-0.431-0.066-0.649c0.044-0.218 0.154-0.418 0.315-0.575s0.366-0.264 0.59-0.307 0.455-0.021 0.666 0.064c0.21 0.085 0.39 0.229 0.517 0.413s0.194 0.402 0.194 0.624c0.001 0.148-0.029 0.294-0.086 0.431s-0.142 0.261-0.249 0.366c-0.107 0.105-0.234 0.188-0.374 0.244s-0.29 0.086-0.442 0.086v-0.004z"></path>
<path  d="M20.314 23.35h-0.9v0.93h-0.469v-2.275h1.481v0.38h-1.012v0.588h0.9v0.378zM22.567 23.194c0 0.224-0.040 0.42-0.119 0.589s-0.193 0.299-0.341 0.391c-0.147 0.092-0.316 0.137-0.506 0.137-0.189 0-0.357-0.045-0.505-0.136s-0.262-0.22-0.344-0.387c-0.081-0.169-0.122-0.363-0.123-0.581v-0.112c0-0.224 0.040-0.421 0.12-0.591 0.081-0.171 0.195-0.302 0.342-0.392 0.148-0.092 0.317-0.137 0.506-0.137s0.358 0.046 0.505 0.137c0.148 0.091 0.262 0.221 0.342 0.392 0.081 0.17 0.122 0.366 0.122 0.589v0.102zM22.092 23.091c0-0.238-0.043-0.42-0.128-0.544s-0.207-0.186-0.366-0.186c-0.157 0-0.279 0.061-0.364 0.184-0.085 0.122-0.129 0.301-0.13 0.538v0.111c0 0.232 0.043 0.412 0.128 0.541s0.208 0.192 0.369 0.192c0.157 0 0.278-0.061 0.363-0.184 0.084-0.124 0.127-0.304 0.128-0.541v-0.111zM24.088 23.683c0-0.089-0.031-0.156-0.094-0.203-0.063-0.048-0.175-0.098-0.337-0.15-0.163-0.053-0.291-0.105-0.386-0.156-0.258-0.14-0.387-0.328-0.387-0.564 0-0.123 0.034-0.232 0.103-0.328 0.070-0.097 0.169-0.172 0.298-0.227 0.13-0.054 0.276-0.081 0.438-0.081 0.163 0 0.307 0.030 0.434 0.089 0.127 0.058 0.226 0.141 0.295 0.248s0.106 0.229 0.106 0.366h-0.469c0-0.104-0.033-0.185-0.098-0.242-0.066-0.058-0.158-0.088-0.277-0.088-0.115 0-0.204 0.024-0.267 0.073-0.064 0.048-0.095 0.111-0.095 0.191 0 0.074 0.037 0.136 0.111 0.186 0.075 0.050 0.185 0.097 0.33 0.141 0.267 0.080 0.461 0.18 0.583 0.298s0.183 0.267 0.183 0.444c0 0.197-0.075 0.352-0.223 0.464-0.149 0.111-0.349 0.167-0.602 0.167-0.175 0-0.334-0.032-0.478-0.095-0.144-0.065-0.254-0.153-0.33-0.264s-0.113-0.241-0.113-0.388h0.47c0 0.251 0.15 0.377 0.45 0.377 0.111 0 0.198-0.022 0.261-0.067 0.063-0.046 0.094-0.109 0.094-0.191zM26.589 22.384h-0.697v1.895h-0.469v-1.895h-0.687v-0.38h1.853v0.38zM28.227 23.294h-0.9v0.609h1.056v0.377h-1.525v-2.275h1.522v0.38h-1.053v0.542h0.9v0.367zM29.5 23.447h-0.373v0.833h-0.469v-2.275h0.845c0.269 0 0.476 0.060 0.622 0.18s0.219 0.289 0.219 0.508c0 0.155-0.034 0.285-0.102 0.389-0.067 0.103-0.168 0.185-0.305 0.247l0.492 0.93v0.022h-0.503l-0.427-0.833zM29.127 23.067h0.378c0.118 0 0.209-0.030 0.273-0.089 0.065-0.060 0.097-0.143 0.097-0.248 0-0.107-0.031-0.192-0.092-0.253-0.060-0.061-0.154-0.092-0.28-0.092h-0.377v0.683zM31.967 23.478v0.802h-0.469v-2.275h0.887c0.171 0 0.321 0.031 0.45 0.094s0.23 0.152 0.3 0.267c0.070 0.115 0.105 0.245 0.105 0.392 0 0.223-0.077 0.399-0.23 0.528-0.152 0.128-0.363 0.192-0.633 0.192h-0.411zM31.967 23.098h0.419c0.124 0 0.218-0.029 0.283-0.088 0.066-0.058 0.098-0.142 0.098-0.25 0-0.111-0.033-0.202-0.098-0.27s-0.156-0.104-0.272-0.106h-0.43v0.714zM34.933 23.294h-0.9v0.609h1.056v0.377h-1.525v-2.275h1.522v0.38h-1.053v0.542h0.9v0.367zM37.108 22.384h-0.697v1.895h-0.469v-1.895h-0.688v-0.38h1.853v0.38zM38.746 23.294h-0.9v0.609h1.056v0.377h-1.525v-2.275h1.522v0.38h-1.053v0.542h0.9v0.367zM40.019 23.447h-0.373v0.833h-0.469v-2.275h0.845c0.269 0 0.476 0.060 0.622 0.18s0.219 0.289 0.219 0.508c0 0.155-0.034 0.285-0.102 0.389-0.067 0.103-0.168 0.185-0.305 0.247l0.492 0.93v0.022h-0.503l-0.427-0.833zM39.646 23.067h0.378c0.118 0 0.209-0.030 0.273-0.089 0.065-0.060 0.097-0.143 0.097-0.248 0-0.107-0.031-0.192-0.092-0.253-0.060-0.061-0.154-0.092-0.28-0.092h-0.377v0.683zM42.4 23.683c0-0.089-0.031-0.156-0.094-0.203-0.063-0.048-0.175-0.098-0.337-0.15-0.163-0.053-0.291-0.105-0.386-0.156-0.258-0.14-0.388-0.328-0.388-0.564 0-0.123 0.034-0.232 0.103-0.328 0.070-0.097 0.169-0.172 0.298-0.227 0.13-0.054 0.276-0.081 0.438-0.081 0.163 0 0.307 0.030 0.434 0.089 0.127 0.058 0.225 0.141 0.295 0.248s0.106 0.229 0.106 0.366h-0.469c0-0.104-0.033-0.185-0.098-0.242-0.066-0.058-0.158-0.088-0.277-0.088-0.115 0-0.204 0.024-0.267 0.073-0.064 0.048-0.095 0.111-0.095 0.191 0 0.074 0.037 0.136 0.111 0.186 0.075 0.050 0.185 0.097 0.33 0.141 0.267 0.080 0.461 0.18 0.583 0.298s0.183 0.267 0.183 0.444c0 0.197-0.074 0.352-0.223 0.464-0.149 0.111-0.349 0.167-0.602 0.167-0.175 0-0.334-0.032-0.478-0.095-0.144-0.065-0.254-0.153-0.33-0.264-0.075-0.111-0.112-0.241-0.112-0.388h0.47c0 0.251 0.15 0.377 0.45 0.377 0.111 0 0.198-0.022 0.261-0.067 0.063-0.046 0.094-0.109 0.094-0.191z"></path>
</symbol>
<symbol id="icon-Client-5" viewBox="0 0 59 32">
<path  d="M20.437 21.125c0.085 0.096 0.13 0.216 0.128 0.34 0 0.008 0.001 0.017 0.001 0.026 0 0.076-0.017 0.148-0.048 0.212l0.001-0.003c-0.037 0.077-0.088 0.142-0.151 0.193l-0.001 0.001c-0.144 0.099-0.322 0.159-0.514 0.159-0.021 0-0.042-0.001-0.063-0.002l0.003 0h-1.010v-2.153h0.989c0.017-0.001 0.038-0.002 0.058-0.002 0.182 0 0.351 0.054 0.493 0.147l-0.003-0.002c0.064 0.049 0.115 0.111 0.148 0.181s0.048 0.146 0.044 0.223c0.006 0.118-0.035 0.235-0.115 0.329-0.077 0.086-0.183 0.145-0.301 0.168 0.134 0.022 0.255 0.088 0.341 0.184zM19.253 20.8h0.423c0.096 0.006 0.191-0.019 0.269-0.072 0.031-0.026 0.055-0.058 0.071-0.094l0.001-0.002c0.012-0.028 0.020-0.060 0.020-0.094 0-0.007-0-0.014-0.001-0.021l0 0.001c0-0.005 0.001-0.012 0.001-0.018 0-0.035-0.007-0.068-0.020-0.098l0.001 0.002c-0.017-0.038-0.041-0.070-0.070-0.096l-0-0c-0.068-0.046-0.152-0.074-0.243-0.074-0.012 0-0.024 0-0.035 0.001l0.002-0h-0.416v0.565zM19.986 21.626c0.033-0.026 0.059-0.059 0.077-0.097l0.001-0.002c0.014-0.030 0.023-0.066 0.023-0.103 0-0.006-0-0.012-0.001-0.018l0 0.001c0-0.005 0-0.010 0-0.016 0-0.038-0.009-0.075-0.024-0.108l0.001 0.002c-0.019-0.040-0.046-0.073-0.079-0.099l-0.001-0c-0.073-0.049-0.163-0.079-0.259-0.079-0.010 0-0.020 0-0.029 0.001l0.001-0h-0.443v0.592h0.449c0.101 0.005 0.201-0.021 0.284-0.075zM22.459 22.051l-0.55-0.842h-0.207v0.842h-0.473v-2.153h0.896c0.019-0.001 0.041-0.002 0.064-0.002 0.211 0 0.405 0.070 0.562 0.187l-0.002-0.002c0.125 0.117 0.201 0.271 0.213 0.434s-0.040 0.326-0.146 0.457c-0.111 0.114-0.258 0.193-0.423 0.218l-0.004 0 0.586 0.861h-0.515zM21.702 20.916h0.387c0.269 0 0.403-0.109 0.403-0.326 0-0.005 0-0.011 0-0.017 0-0.041-0.008-0.080-0.023-0.115l0.001 0.002c-0.018-0.044-0.044-0.081-0.077-0.111l-0-0c-0.074-0.055-0.166-0.089-0.267-0.089-0.013 0-0.026 0.001-0.039 0.002l0.002-0h-0.392l0.005 0.655zM25.047 21.617h-0.943l-0.167 0.434h-0.496l0.866-2.129h0.537l0.863 2.129h-0.496l-0.163-0.433zM24.921 21.291l-0.345-0.909-0.345 0.909h0.689zM28.286 22.051h-0.47l-1.054-1.464v1.464h-0.469v-2.154h0.469l1.054 1.473v-1.473h0.47v2.154zM30.968 21.536c-0.097 0.162-0.245 0.295-0.425 0.38-0.183 0.086-0.397 0.136-0.622 0.136-0.014 0-0.027-0-0.040-0.001l0.002 0h-0.836v-2.154h0.837c0.011-0 0.025-0 0.038-0 0.226 0 0.44 0.049 0.633 0.137l-0.009-0.004c0.179 0.083 0.328 0.214 0.425 0.376 0.097 0.175 0.147 0.369 0.147 0.565s-0.050 0.39-0.147 0.565zM30.43 21.484c0.134-0.143 0.208-0.326 0.208-0.514-0.001-0.2-0.080-0.38-0.208-0.514l0 0c-0.146-0.115-0.332-0.185-0.535-0.185-0.019 0-0.038 0.001-0.056 0.002l0.003-0h-0.326v1.394h0.326c0.016 0.001 0.035 0.002 0.054 0.002 0.202 0 0.389-0.070 0.536-0.186l-0.002 0.001zM25.341 7.919s6.065 2.097 5.937 5.13v5.132s-6.061-2.098-5.935-5.132l-0.002-5.131zM36.682 16.98c1.146-0.722 2.471-1.169 3.854-1.3v-1.607c-1.594 0.563-2.946 1.583-3.854 2.907z"></path>
<path  d="M35.994 17.464c0.937-1.729 2.563-3.063 4.542-3.728v-4.629s-8.638 2.987-8.456 7.307v7.306s0.385-0.134 0.991-0.384c0-0.233 0-0.469 0.027-0.706 0.179-2.006 1.22-3.864 2.896-5.168z"></path>
<path  d="M35.172 20.178c0.045-0.507 0.146-1.008 0.302-1.496-1.043 1.125-1.675 2.522-1.806 3.992-0.013 0.139-0.020 0.278-0.023 0.421 0.721-0.315 1.266-0.583 1.801-0.869l-0.139 0.068c-0.153-0.696-0.198-1.408-0.134-2.116zM35.515 20.205c-0.017 0.177-0.026 0.384-0.026 0.592 0 0.469 0.049 0.926 0.141 1.367l-0.008-0.043c2.36-1.293 5.012-3.291 4.91-5.705v-0.21c-1.686 0.173-3.264 0.848-4.49 1.921-0.27 0.608-0.457 1.313-0.524 2.053l-0.002 0.026z"></path>
</symbol>
<symbol id="icon-Client-6" viewBox="0 0 59 32">
<path  d="M29.713 15.098c-0.133-0.171-0.213-0.389-0.213-0.625 0-0.023 0.001-0.047 0.002-0.070l-0 0.003v-1.003c0-0.307 0.070-0.541 0.209-0.701s0.379-0.239 0.718-0.239c0.319 0 0.546 0.068 0.68 0.204 0.146 0.174 0.217 0.386 0.201 0.6v0.236h-0.57v-0.239c0.002-0.078-0.003-0.157-0.017-0.234-0.010-0.056-0.039-0.105-0.081-0.138l-0-0c-0.051-0.035-0.115-0.055-0.183-0.055-0.008 0-0.017 0-0.025 0.001l0.001-0c-0.007-0.001-0.016-0.001-0.024-0.001-0.072 0-0.139 0.022-0.194 0.059l0.001-0.001c-0.047 0.038-0.081 0.091-0.094 0.151l-0 0.002c-0.014 0.069-0.023 0.148-0.023 0.229 0 0.007 0 0.013 0 0.020v-0.001 1.217c-0.009 0.117 0.016 0.235 0.073 0.342 0.030 0.037 0.068 0.065 0.112 0.082l0.002 0.001c0.046 0.018 0.097 0.025 0.147 0.019 0.007 0.001 0.015 0.001 0.024 0.001 0.067 0 0.129-0.021 0.179-0.057l-0.001 0.001c0.044-0.037 0.075-0.088 0.085-0.146l0-0.001c0.011-0.066 0.018-0.142 0.018-0.219 0-0.009-0-0.018-0-0.026l0 0.001v-0.247h0.571v0.225c0.001 0.018 0.002 0.039 0.002 0.060 0 0.217-0.075 0.416-0.201 0.573l0.001-0.002c-0.131 0.149-0.355 0.223-0.683 0.223s-0.577-0.080-0.717-0.245zM32.089 15.109c-0.144-0.157-0.216-0.384-0.216-0.685v-1.055c0-0.298 0.072-0.523 0.216-0.677s0.385-0.229 0.723-0.229c0.336 0 0.575 0.077 0.72 0.229 0.144 0.153 0.217 0.378 0.217 0.677v1.055c0 0.298-0.073 0.527-0.22 0.684s-0.385 0.235-0.717 0.235-0.578-0.080-0.723-0.234zM33.078 14.856c0.052-0.098 0.075-0.205 0.069-0.312v-1.292c0.001-0.010 0.001-0.023 0.001-0.035 0-0.099-0.025-0.193-0.070-0.274l0.002 0.003c-0.030-0.037-0.070-0.066-0.115-0.083l-0.002-0.001c-0.033-0.013-0.072-0.021-0.112-0.021-0.014 0-0.027 0.001-0.040 0.003l0.002-0c-0.012-0.002-0.025-0.002-0.039-0.002-0.040 0-0.079 0.008-0.114 0.021l0.002-0.001c-0.047 0.018-0.087 0.047-0.117 0.083l-0 0c-0.052 0.096-0.075 0.201-0.069 0.306v1.298c-0.007 0.107 0.016 0.215 0.069 0.312 0.033 0.033 0.074 0.059 0.12 0.077 0.043 0.017 0.094 0.028 0.147 0.028s0.103-0.010 0.149-0.029l-0.003 0.001c0.046-0.018 0.087-0.045 0.12-0.077v-0.006zM34.436 12.495h0.614l0.462 1.946 0.472-1.946h0.598l0.061 2.809h-0.442l-0.047-1.952-0.456 1.952h-0.354l-0.473-1.959-0.044 1.959h-0.447l0.056-2.809zM37.332 12.495h0.957c0.551 0 0.827 0.266 0.827 0.798 0 0.509-0.29 0.764-0.871 0.763h-0.326v1.248h-0.591l0.003-2.809zM38.15 13.696c0.058 0.007 0.118 0.002 0.174-0.014s0.107-0.041 0.151-0.075c0.068-0.095 0.098-0.206 0.085-0.317 0-0.009 0.001-0.020 0.001-0.031 0-0.080-0.011-0.157-0.030-0.23l0.001 0.006c-0.009-0.030-0.024-0.056-0.044-0.077l0 0c-0.021-0.023-0.045-0.042-0.073-0.056l-0.001-0.001c-0.069-0.029-0.149-0.046-0.233-0.046-0.011 0-0.022 0-0.032 0.001l0.002-0h-0.229v0.84h0.229zM39.968 12.495h0.635l0.651 2.809h-0.551l-0.129-0.648h-0.566l-0.133 0.648h-0.559l0.651-2.809zM40.511 14.331l-0.221-1.179-0.221 1.179h0.442zM41.78 12.495h0.414l0.792 1.602v-1.602h0.49v2.809h-0.393l-0.797-1.673v1.673h-0.507l0.001-2.809zM44.624 14.233l-0.658-1.734h0.554l0.402 1.114 0.377-1.114h0.542l-0.65 1.734v1.071h-0.567v-1.071zM30.625 16.533v0.147h-0.482v1.142h-0.202v-1.142h-0.485v-0.147h1.169zM32.137 17.821h-0.156c-0.001 0-0.003 0-0.004 0-0.015 0-0.028-0.005-0.040-0.012l0 0c-0.011-0.007-0.020-0.017-0.026-0.029l-0-0-0.139-0.306h-0.669l-0.139 0.306c-0.004 0.014-0.012 0.025-0.022 0.035l-0 0c-0.011 0.008-0.025 0.012-0.040 0.012-0.001 0-0.003-0-0.004-0h-0.156l0.591-1.288h0.206l0.598 1.283zM31.158 17.343h0.558l-0.237-0.525c-0.015-0.033-0.030-0.073-0.042-0.115l-0.002-0.007c-0.008 0.024-0.015 0.048-0.023 0.069l-0.021 0.054-0.234 0.523zM33.155 17.695c0.037 0.002 0.074 0.002 0.111 0 0.032-0.003 0.063-0.008 0.094-0.015 0.029-0.006 0.057-0.014 0.085-0.023 0.026-0.009 0.052-0.021 0.079-0.032v-0.29h-0.237c-0 0-0.001 0-0.001 0-0.011 0-0.022-0.004-0.030-0.011l0 0c-0.004-0.003-0.007-0.006-0.009-0.010l-0-0c-0.002-0.003-0.003-0.008-0.003-0.012 0-0 0-0.001 0-0.001v0-0.099h0.458v0.494c-0.072 0.045-0.155 0.081-0.243 0.103l-0.006 0.001c-0.048 0.013-0.097 0.021-0.147 0.027-0.057 0.005-0.115 0.008-0.173 0.008-0.002 0-0.005 0-0.007 0-0.104 0-0.204-0.018-0.297-0.050l0.006 0.002c-0.091-0.032-0.17-0.077-0.237-0.135l0.001 0.001c-0.063-0.056-0.115-0.124-0.151-0.2l-0.002-0.004c-0.034-0.076-0.054-0.165-0.054-0.259 0-0.003 0-0.006 0-0.009v0c-0-0.002-0-0.005-0-0.008 0-0.094 0.020-0.184 0.055-0.266l-0.002 0.004c0.034-0.077 0.086-0.146 0.152-0.204 0.067-0.058 0.148-0.103 0.237-0.134 0.101-0.033 0.209-0.049 0.317-0.048 0.055 0 0.11 0.003 0.164 0.011 0.048 0.007 0.095 0.018 0.141 0.033 0.042 0.013 0.081 0.031 0.118 0.051 0.036 0.020 0.071 0.042 0.103 0.067l-0.057 0.080c-0.005 0.007-0.011 0.013-0.019 0.017l-0 0c-0.008 0.004-0.017 0.007-0.027 0.007h-0c-0.013-0-0.026-0.004-0.037-0.010l0 0c-0.024-0.011-0.043-0.021-0.061-0.032l0.003 0.002c-0.022-0.012-0.048-0.024-0.075-0.034l-0.004-0.001c-0.030-0.011-0.067-0.021-0.104-0.028l-0.005-0.001c-0.043-0.007-0.092-0.011-0.142-0.011-0.003 0-0.005 0-0.008 0h0c-0.002-0-0.005-0-0.007-0-0.079 0-0.155 0.013-0.226 0.037l0.005-0.001c-0.066 0.023-0.125 0.057-0.174 0.102-0.047 0.044-0.084 0.097-0.108 0.157l-0.001 0.003c-0.025 0.064-0.040 0.138-0.040 0.215s0.015 0.151 0.041 0.219l-0.001-0.004c0.026 0.061 0.066 0.116 0.118 0.162 0.048 0.044 0.107 0.079 0.172 0.102 0.075 0.022 0.155 0.031 0.234 0.025zM35.039 17.674h0.645v0.147h-0.842v-1.288h0.202l-0.005 1.142zM36.355 17.821h-0.202v-1.288h0.202v1.288zM37.106 16.539c0.012 0.006 0.022 0.014 0.031 0.023l0 0 0.864 0.971c-0.001-0.007-0.001-0.015-0.001-0.023s0-0.016 0.001-0.024l-0 0.001v-0.96h0.176v1.294h-0.102c-0.002 0-0.004 0-0.007 0-0.013 0-0.026-0.003-0.038-0.008l0.001 0c-0.012-0.006-0.023-0.015-0.032-0.024l-0-0-0.863-0.97v1.002h-0.169v-1.288h0.105c0.011 0 0.023 0.002 0.033 0.006zM39.665 16.533v0.142h-0.716v0.425h0.58v0.137h-0.58v0.44h0.716v0.142h-0.924v-1.285h0.924zM18.491 8.576l8.972 2.2v7.707l-8.972-2.198v-7.709zM17.915 7.919v8.739l10.122 2.482v-8.739l-10.122-2.483z"></path>
<path  d="M23.341 23.197l-10.123-2.484v-8.739l10.123 2.483v8.739z"></path>
<path  d="M18.083 8.477l8.855 2.172-3.766 3.252-8.857-2.173 3.767-3.251zM17.915 7.919l-4.698 4.056 10.123 2.483 4.697-4.056-10.122-2.483zM23.91 22.706l4.127-3.564-4.128-1.013v4.577z"></path>
</symbol>
<symbol id="icon-smartphone" viewBox="0 0 20 32">
<path  style="" d="M17 0h-14c-1.654 0-3 1.346-3 3v26c0 1.654 1.346 3 3 3h14c1.654 0 3-1.346 3-3v-26c0-1.654-1.346-3-3-3zM3 2h14c0.552 0 1 0.448 1 1v0 21h-16v-21c0-0.552 0.448-1 1-1v0zM17 30h-14c-0.552 0-1-0.448-1-1v0-3h16v3c0 0.552-0.448 1-1 1v0z"></path>
<path  d="M4.708 27.478c0.18 0.163 0.293 0.399 0.293 0.66s-0.113 0.497-0.292 0.659l-0.001 0.001c-0.186 0.17-0.435 0.275-0.708 0.275s-0.522-0.104-0.709-0.275l0.001 0.001c-0.18-0.163-0.293-0.399-0.293-0.66s0.113-0.497 0.292-0.659l0.001-0.001c0.186-0.17 0.435-0.275 0.708-0.275s0.522 0.104 0.709 0.275l-0.001-0.001z"></path>
</symbol>
<symbol id="icon-Ellipse_f" viewBox="0 0 32 32">
<path  d="M21.328 5.312h2.923v-5.088c-1.232-0.143-2.66-0.224-4.108-0.224-0.052 0-0.104 0-0.156 0l0.008-0c-4.213 0-7.099 2.65-7.099 7.52v4.48h-4.646v5.688h4.646v14.312h5.699v-14.31h4.459l0.707-5.688h-5.168v-3.922c0-1.643 0.443-2.768 2.734-2.768z"></path>
</symbol>
<symbol id="icon-Ellipse_inst" viewBox="0 0 32 32">
<path  d="M31.968 9.408c-0.074-1.701-0.349-2.869-0.742-3.882-0.424-1.111-1.054-2.059-1.85-2.837l-0.001-0.001c-0.78-0.792-1.724-1.419-2.778-1.827l-0.054-0.018c-1.019-0.394-2.181-0.667-3.882-0.742-1.712-0.082-2.256-0.101-6.602-0.101-4.344 0-4.888 0.019-6.595 0.094-1.699 0.074-2.869 0.349-3.88 0.742-1.112 0.424-2.060 1.054-2.839 1.85l-0.001 0.001c-0.791 0.78-1.418 1.724-1.825 2.778l-0.018 0.054c-0.395 1.019-0.669 2.181-0.744 3.882-0.082 1.712-0.101 2.256-0.101 6.602 0 4.344 0.019 4.888 0.094 6.595 0.075 1.701 0.35 2.869 0.744 3.882 0.426 1.11 1.055 2.057 1.849 2.837l0.001 0.001c0.8 0.813 1.77 1.443 2.832 1.843 1.019 0.395 2.182 0.67 3.882 0.744 1.707 0.075 2.251 0.094 6.595 0.094 4.346 0 4.89-0.019 6.595-0.094 1.701-0.074 2.869-0.349 3.882-0.742 2.157-0.85 3.833-2.526 4.664-4.628l0.019-0.055c0.394-1.019 0.669-2.182 0.744-3.882 0.075-1.707 0.093-2.251 0.093-6.595s-0.006-4.888-0.080-6.595zM29.088 22.474c-0.070 1.563-0.333 2.406-0.55 2.97-0.552 1.399-1.64 2.486-3.004 3.024l-0.036 0.012c-0.56 0.219-1.411 0.482-2.968 0.55-1.688 0.075-2.194 0.094-6.464 0.094-4.269 0-4.782-0.019-6.464-0.094-1.563-0.069-2.406-0.331-2.97-0.55-0.721-0.269-1.334-0.676-1.836-1.192l-0.001-0.001c-0.517-0.503-0.924-1.117-1.184-1.803l-0.011-0.034c-0.218-0.563-0.48-1.413-0.549-2.97-0.075-1.688-0.094-2.195-0.094-6.464 0-4.27 0.019-4.784 0.094-6.464 0.069-1.563 0.331-2.406 0.549-2.97 0.269-0.722 0.678-1.337 1.198-1.837l0.002-0.002c0.504-0.517 1.119-0.923 1.806-1.182l0.034-0.011c0.56-0.219 1.411-0.48 2.968-0.55 1.688-0.074 2.195-0.093 6.464-0.093 4.275 0 4.782 0.019 6.464 0.093 1.563 0.069 2.406 0.331 2.97 0.55 0.693 0.256 1.325 0.662 1.837 1.194 0.531 0.52 0.938 1.144 1.195 1.84 0.218 0.56 0.48 1.411 0.549 2.968 0.075 1.688 0.094 2.194 0.094 6.464 0 4.269-0.019 4.768-0.094 6.458z"></path>
<path  d="M16.059 7.782c-4.539 0.002-8.218 3.682-8.219 8.221v0c0.091 4.471 3.737 8.060 8.221 8.060s8.13-3.589 8.221-8.052l0-0.009c-0.001-4.54-3.681-8.22-8.221-8.221h-0zM16.059 21.334c-2.945-0-5.332-2.388-5.332-5.333s2.388-5.333 5.333-5.333c0 0 0.001 0 0.001 0h-0c2.946 0 5.334 2.388 5.334 5.334s-2.388 5.334-5.334 5.334v0zM26.525 7.458c0 1.060-0.86 1.92-1.92 1.92s-1.92-0.86-1.92-1.92v0c0-1.060 0.86-1.92 1.92-1.92s1.92 0.86 1.92 1.92v0z"></path>
</symbol>
<symbol id="icon-Ellipse_in" viewBox="0 0 32 32">
<path  d="M31.992 32h0.008v-11.738c0-5.741-1.237-10.163-7.947-10.163-3.227 0-5.392 1.77-6.277 3.45h-0.093v-2.914h-6.365v21.363h6.627v-10.578c0-2.786 0.528-5.48 3.978-5.48 3.398 0 3.448 3.179 3.448 5.658v10.402h6.621zM0.528 10.635h6.635v21.365h-6.635v-21.365zM3.843 0c-2.123 0-3.843 1.721-3.843 3.843v0c0 2.12 1.722 3.878 3.843 3.878 2.12 0 3.842-1.757 3.842-3.878s-1.72-3.841-3.841-3.843h-0z"></path>
</symbol>
<symbol id="icon-Ellipse_berd" viewBox="0 0 32 32">
<path  d="M32 6.078c-1.1 0.493-2.376 0.857-3.713 1.028l-0.068 0.007c1.36-0.817 2.382-2.078 2.873-3.579l0.013-0.046c-1.197 0.722-2.591 1.273-4.076 1.573l-0.084 0.014c-1.2-1.279-2.9-2.076-4.787-2.076-3.622 0-6.558 2.936-6.558 6.558 0 0.001 0 0.003 0 0.004v-0c0 0.52 0.043 1.021 0.152 1.496-5.454-0.266-10.28-2.88-13.522-6.861-0.564 0.949-0.899 2.092-0.902 3.313v0.001c0 2.272 1.171 4.286 2.914 5.451-1.091-0.030-2.107-0.325-2.994-0.823l0.033 0.017v0.072c0.003 3.165 2.236 5.807 5.213 6.44l0.043 0.008c-0.499 0.136-1.071 0.215-1.662 0.215-0.020 0-0.041-0-0.061-0l0.003 0c-0.419 0-0.843-0.024-1.242-0.112 0.85 2.598 3.261 4.509 6.13 4.57-2.215 1.746-5.045 2.8-8.122 2.8-0.004 0-0.008 0-0.013 0h0.001c-0.018 0-0.040 0-0.062 0-0.531 0-1.055-0.034-1.569-0.099l0.061 0.006c2.826 1.846 6.287 2.944 10.004 2.944 0.021 0 0.042-0 0.063-0h-0.003c12.072 0 18.672-10 18.672-18.669 0-0.288-0.010-0.57-0.024-0.848 1.299-0.936 2.39-2.064 3.258-3.355l0.030-0.047z"></path>
</symbol>
<symbol id="icon-close" viewBox="0 0 32 32">
<path d="M26.667 7.303l-1.97-1.97-7.808 7.808-7.808-7.808-1.97 1.97 7.808 7.808-7.808 7.808 1.97 1.97 7.808-7.808 7.808 7.808 1.97-1.97-7.808-7.808 7.808-7.808z"></path>
</symbol>
<symbol id="icon-person" viewBox="0 0 32 32">
<path d="M16 16c2.946 0 5.333-2.388 5.333-5.333s-2.388-5.333-5.333-5.333v0c-2.946 0-5.333 2.388-5.333 5.333s2.388 5.333 5.333 5.333v0zM16 18.667c-3.561 0-10.667 1.787-10.667 5.333v1.333c0 0.732 0.599 1.333 1.333 1.333h18.667c0.732 0 1.333-0.601 1.333-1.333v-1.333c0-3.547-7.108-5.333-10.667-5.333z"></path>
</symbol>
<symbol id="icon-phone" viewBox="0 0 32 32">
<path d="M24.882 19.774l-3.268-0.373c-0.090-0.011-0.194-0.018-0.3-0.018-0.707 0-1.347 0.287-1.81 0.75l-2.368 2.368c-3.669-1.894-6.585-4.81-8.427-8.372l-0.051-0.108 2.382-2.377c0.463-0.463 0.75-1.103 0.75-1.81 0-0.106-0.006-0.21-0.019-0.312l0.001 0.012-0.373-3.243c-0.155-1.287-1.24-2.276-2.557-2.276-0.001 0-0.002 0-0.003 0h-2.226c-1.454 0-2.663 1.209-2.574 2.661 0.683 10.987 9.47 19.762 20.444 20.444 1.452 0.089 2.663-1.12 2.663-2.574v-2.226c0-0.004 0-0.008 0-0.012 0-1.308-0.985-2.386-2.253-2.532l-0.012-0.001z"></path>
</symbol>
<symbol id="icon-email-black" viewBox="0 0 32 32">
<path d="M26.667 5.333h-21.333c-1.467 0-2.652 1.2-2.652 2.667l-0.014 16c0 1.467 1.2 2.667 2.667 2.667h21.333c1.467 0 2.667-1.2 2.667-2.667v-16c0-1.467-1.2-2.667-2.667-2.667zM26.133 11.001l-9.426 5.892c-0.201 0.126-0.446 0.2-0.708 0.2s-0.506-0.075-0.713-0.204l0.006 0.003-9.426-5.892c-0.336-0.201-0.557-0.562-0.557-0.975 0-0.625 0.507-1.132 1.132-1.132 0.233 0 0.449 0.070 0.629 0.19l-0.004-0.003 8.933 5.586 8.933-5.588c0.176-0.118 0.392-0.188 0.624-0.188 0.625 0 1.132 0.507 1.132 1.132 0 0.413-0.221 0.775-0.552 0.972l-0.005 0.003z"></path>
</symbol>
<symbol id="icon-check" viewBox="0 0 42 32">
<path d="M6.262 15.206l-0.221-0.211-0.221 0.208-3.085 2.925 0.243 0.234 11.408 10.88 0.221-0.211 24.256-23.139-0.243-0.23-3.043-2.902-0.221 0.211-20.97 19.987-8.125-7.75z"></path>
</symbol>
<symbol id="icon-send" viewBox="0 0 32 32">
<path fill="#fff" style="fill: var(--color1, #fff)" d="M32 0l-32 18 10.227 3.787 15.773-14.787-11.997 16.187 0.009 0.003-0.012-0.003v8.813l5.735-6.691 7.267 2.691 4.999-28z"></path>
</symbol>
<symbol id="icon-menu" viewBox="0 0 32 32">
<path d="M6.4 11.734v-2.134h19.2v2.134h-19.2zM6.4 17.066h19.2v-2.133h-19.2v2.133zM6.4 22.4h19.2v-2.134h-19.2v2.134z"></path>
</symbol>
<symbol id="icon-line" viewBox="0 0 1 32">
<path d=""></path>
</symbol>
</defs>
</svg>
